<svg height="512pt" viewBox="-10 0 511 512" width="512pt" xmlns="http://www.w3.org/2000/svg"><path d="m261.730469 0h-32.25c-37.792969 0-68.539063 30.746094-68.539063 68.535156v72.566406c0 11.117188 9.042969 20.160157 20.160156 20.160157 11.113282 0 20.15625-9.042969 20.15625-20.160157v-72.566406c0-15.558594 12.660157-28.21875 28.222657-28.21875h32.25c15.5625 0 28.21875 12.660156 28.21875 28.21875v72.566406c0 11.117188 9.042969 20.160157 20.160156 20.160157 11.113281 0 20.15625-9.042969 20.15625-20.160157v-72.566406c0-37.789062-30.746094-68.535156-68.535156-68.535156zm0 0" fill="#c7c9d3"/><path d="m160.941406 141.101562c0 11.117188 9.042969 20.160157 20.160156 20.160157 11.113282 0 20.15625-9.042969 20.15625-20.160157v-32.25h-40.316406zm0 0" fill="#b4b7c5"/><path d="m289.949219 108.851562v32.25c0 11.117188 9.042969 20.160157 20.160156 20.160157 11.113281 0 20.15625-9.042969 20.15625-20.160157v-32.25zm0 0" fill="#b4b7c5"/><path d="m489.140625 442.433594-65.554687-274.144532c-6.097657-25.5-28.671876-43.3125-54.894532-43.3125h-246.171875c-26.222656 0-48.796875 17.8125-54.894531 43.3125l-65.554688 274.144532c-4.042968 16.910156-.1875 34.4375 10.585938 48.085937 10.769531 13.652344 26.917969 21.480469 44.308594 21.480469h377.28125c17.390625 0 33.539062-7.828125 44.308594-21.480469 10.769531-13.648437 14.628906-31.175781 10.585937-48.085937zm0 0" fill="#7b8199"/><path d="m469.714844 487.8125h-377.285156c-17.386719 0-33.539063-7.832031-44.308594-21.480469-10.769532-13.652343-14.628906-31.179687-10.585938-48.089843l65.554688-274.140626c1.5625-6.535156 4.214844-12.558593 7.722656-17.910156-21.023438 4.40625-38.019531 20.488282-43.1875 42.097656l-65.554688 274.144532c-4.042968 16.910156-.1875 34.4375 10.582032 48.085937 10.773437 13.652344 26.921875 21.480469 44.3125 21.480469h377.28125c17.390625 0 33.539062-7.828125 44.308594-21.480469 1.003906-1.273437 1.929687-2.589843 2.8125-3.925781-3.789063.789062-7.6875 1.21875-11.652344 1.21875zm0 0" fill="#696f8b"/><g fill="#77dce9"><path d="m230.285156 248.339844c-5.339844-7.113282-15.46875-8.558594-22.578125-3.226563l-70.953125 53.214844v-40.3125c0-8.890625-7.234375-16.125-16.125-16.125-8.894531 0-16.128906 7.234375-16.128906 16.125v145.132813c0 8.890624 7.234375 16.125 16.128906 16.125 8.890625 0 16.125-7.234376 16.125-16.125v-40.316407l70.953125 53.21875c7.027344 5.265625 17.308594 3.800781 22.578125-3.226562 5.332032-7.113281 3.886719-17.242188-3.226562-22.578125l-79.554688-59.664063 79.554688-59.664062c7.113281-5.335938 8.558594-15.464844 3.226562-22.578125zm0 0"/><path d="m378.644531 322.519531h-56.441406c-8.890625 0-16.125 7.234375-16.125 16.125v16.125c0 8.894531 7.234375 16.128907 16.125 16.128907s16.125-7.234376 16.125-16.125h24.191406v16.125c0 8.890624-7.234375 16.125-16.128906 16.125h-40.3125c-8.890625 0-16.128906-7.234376-16.128906-16.125v-80.632813c0-8.890625 7.238281-16.125 16.128906-16.125h40.3125c8.894531 0 16.128906 7.234375 16.128906 16.125s7.234375 16.128906 16.125 16.128906 16.125-7.238281 16.125-16.128906c0-26.675781-21.703125-48.375-48.378906-48.375h-40.3125c-26.675781 0-48.378906 21.699219-48.378906 48.375v80.632813c0 26.671874 21.703125 48.375 48.378906 48.375h40.3125c26.675781 0 48.378906-21.703126 48.378906-48.375v-32.253907c0-8.890625-7.234375-16.125-16.125-16.125zm0 0"/></g></svg>